<svg xmlns:dc="http://purl.org/dc/elements/1.1/" xmlns:cc="http://creativecommons.org/ns#" xmlns:rdf="http://www.w3.org/1999/02/22-rdf-syntax-ns#" xmlns:svg="http://www.w3.org/2000/svg" xmlns="http://www.w3.org/2000/svg" viewBox="0 0 180 180"><metadata><rdf:RDF><cc:Work><dc:format>image/svg+xml</dc:format><dc:type rdf:resource="http://purl.org/dc/dcmitype/StillImage"/><dc:title>Bottts</dc:title><dc:creator><cc:Agent><dc:title>Pablo Stanley</dc:title></cc:Agent></dc:creator><dc:source>https://bottts.com/</dc:source><cc:license rdf:resource="https://bottts.com/"/><dc:contributor><cc:Agent><dc:title>Florian Körner</dc:title></cc:Agent></dc:contributor></cc:Work></rdf:RDF></metadata><mask id="avatarsRadiusMask"><rect width="180" height="180" rx="0" ry="0" x="0" y="0" fill="#fff"/></mask><g mask="url(#avatarsRadiusMask)"><g transform="translate(0, 66)"><path fill-rule="evenodd" clip-rule="evenodd" d="M14.9809 20.9141C14 22.8393 14 25.3595 14 30.4V45.6C14 50.6405 14 53.1607 14.9809 55.0859C15.8438 56.7794 17.2206 58.1562 18.9141 59.0191C20.8393 60 23.3595 60 28.4 60H35.6C40.6405 60 43.1607 60 45.0859 59.0191C46.7794 58.1562 48.1562 56.7794 49.0191 55.0859C50 53.1607 50 50.6405 50 45.6V30.4C50 25.3595 50 22.8393 49.0191 20.9141C48.1562 19.2206 46.7794 17.8438 45.0859 16.9809C43.1607 16 40.6405 16 35.6 16H28.4C23.3595 16 20.8393 16 18.9141 16.9809C17.2206 17.8438 15.8438 19.2206 14.9809 20.9141ZM130.981 20.9141C130 22.8393 130 25.3595 130 30.4V45.6C130 50.6405 130 53.1607 130.981 55.0859C131.844 56.7794 133.221 58.1562 134.914 59.0191C136.839 60 139.36 60 144.4 60H151.6C156.64 60 159.161 60 161.086 59.0191C162.779 58.1562 164.156 56.7794 165.019 55.0859C166 53.1607 166 50.6405 166 45.6V30.4C166 25.3595 166 22.8393 165.019 20.9141C164.156 19.2206 162.779 17.8438 161.086 16.9809C159.161 16 156.64 16 151.6 16H144.4C139.36 16 136.839 16 134.914 16.9809C133.221 17.8438 131.844 19.2206 130.981 20.9141Z" fill="#0076DE"/><mask id="sidesSquareMask0" mask-type="alpha" maskUnits="userSpaceOnUse" x="14" y="16" width="152" height="44"><path fill-rule="evenodd" clip-rule="evenodd" d="M14.9809 20.9141C14 22.8393 14 25.3595 14 30.4V45.6C14 50.6405 14 53.1607 14.9809 55.0859C15.8438 56.7794 17.2206 58.1562 18.9141 59.0191C20.8393 60 23.3595 60 28.4 60H35.6C40.6405 60 43.1607 60 45.0859 59.0191C46.7794 58.1562 48.1562 56.7794 49.0191 55.0859C50 53.1607 50 50.6405 50 45.6V30.4C50 25.3595 50 22.8393 49.0191 20.9141C48.1562 19.2206 46.7794 17.8438 45.0859 16.9809C43.1607 16 40.6405 16 35.6 16H28.4C23.3595 16 20.8393 16 18.9141 16.9809C17.2206 17.8438 15.8438 19.2206 14.9809 20.9141ZM130.981 20.9141C130 22.8393 130 25.3595 130 30.4V45.6C130 50.6405 130 53.1607 130.981 55.0859C131.844 56.7794 133.221 58.1562 134.914 59.0191C136.839 60 139.36 60 144.4 60H151.6C156.64 60 159.161 60 161.086 59.0191C162.779 58.1562 164.156 56.7794 165.019 55.0859C166 53.1607 166 50.6405 166 45.6V30.4C166 25.3595 166 22.8393 165.019 20.9141C164.156 19.2206 162.779 17.8438 161.086 16.9809C159.161 16 156.64 16 151.6 16H144.4C139.36 16 136.839 16 134.914 16.9809C133.221 17.8438 131.844 19.2206 130.981 20.9141Z" fill="white"/></mask><g mask="url(#sidesSquareMask0)"><rect width="180" height="76" fill="#8D6E63"/><rect y="38" width="180" height="38" fill="black" fill-opacity="0.1"/></g></g><g transform="translate(41, 0)"><path fill-rule="evenodd" clip-rule="evenodd" d="M23 22C20.2386 22 18 24.2386 18 27V40H12C10.8954 40 10 40.8954 10 42V52H18H34H42H58H66H82H90V42C90 40.8954 89.1046 40 88 40H82V27C82 24.2386 79.7614 22 77 22H71C68.2386 22 66 24.2386 66 27V40H58V27C58 24.2386 55.7614 22 53 22H47C44.2386 22 42 24.2386 42 27V40H34V27C34 24.2386 31.7614 22 29 22H23Z" fill="#E1E6E8"/><mask id="topLightsMask0" mask-type="alpha" maskUnits="userSpaceOnUse" x="10" y="22" width="80" height="30"><path fill-rule="evenodd" clip-rule="evenodd" d="M23 22C20.2386 22 18 24.2386 18 27V40H12C10.8954 40 10 40.8954 10 42V52H18H34H42H58H66H82H90V42C90 40.8954 89.1046 40 88 40H82V27C82 24.2386 79.7614 22 77 22H71C68.2386 22 66 24.2386 66 27V40H58V27C58 24.2386 55.7614 22 53 22H47C44.2386 22 42 24.2386 42 27V40H34V27C34 24.2386 31.7614 22 29 22H23Z" fill="white"/></mask><g mask="url(#topLightsMask0)"><rect width="100" height="52" fill="#8D6E63"/><rect width="100" height="40" fill="white" fill-opacity="0.6"/><rect x="24" y="28" width="4" height="8" rx="2" fill="white" fill-opacity="0.6"/><rect x="48" y="28" width="4" height="8" rx="2" fill="white" fill-opacity="0.6"/><rect x="72" y="28" width="4" height="8" rx="2" fill="white" fill-opacity="0.6"/></g></g><g transform="translate(25, 44)"><path d="M0 12C0 5.37259 5.37258 0 12 0H118C124.627 0 130 5.37258 130 12V82C130 102.987 112.987 120 92 120H38C17.0132 120 0 102.987 0 82V12Z" fill="#0076DE"/><mask id="faceSquare01Mask0" mask-type="alpha" maskUnits="userSpaceOnUse" x="0" y="0" width="130" height="120"><path d="M0 12C0 5.37259 5.37258 0 12 0H118C124.627 0 130 5.37258 130 12V82C130 102.987 112.987 120 92 120H38C17.0132 120 0 102.987 0 82V12Z" fill="white"/></mask><g mask="url(#faceSquare01Mask0)"><rect x="-2" y="-2" width="134" height="124" fill="#6D4C41"/><path fill-rule="evenodd" clip-rule="evenodd" d="M120 130.649C116.812 113.308 110.453 128.073 95.1523 125.017C88.3923 123.666 93.8542 117.769 88.8124 115.213C84.5536 113.054 78.7499 114.793 73.8715 113.397C66.8312 111.382 66.9237 107.282 60.3639 106.669C54.1604 106.09 47.6616 107.999 41.4049 107.282C29.5967 105.928 34.4383 88.0585 25.5835 84.9025C16.7287 81.7465 2.15043 87.1967 0.242157 96.1317C-1.61816 104.842 10.8129 137.252 10.8129 137.252H120" fill="black" fill-opacity="0.2"/><path fill-rule="evenodd" clip-rule="evenodd" d="M156 122.767C104.757 122.767 99.4219 96.9746 74.2092 85.1582C48.9964 73.3418 26.9059 103.905 18.4298 74.2122C9.9537 44.5195 10.0005 137.072 10.0005 137.072H156V122.767Z" fill="black" fill-opacity="0.1"/><path fill-rule="evenodd" clip-rule="evenodd" d="M161.575 9.17587C149.64 8.20079 156.546 19.9843 151.83 19.9843C144.863 19.9843 149.727 12.0062 141.247 12.2048C139.028 12.2568 136.303 14.1443 136.135 16.709C135.773 22.2193 139.852 31.7253 134.297 31.9953C129.117 32.247 133.193 22.3562 132.652 15.7593C132.343 11.9871 128.47 9.00745 125.684 9.00745C118.113 9.00745 123.998 24.7147 118.549 24.7147C113.1 24.7147 117.341 15.6639 113.467 10.8715C108.964 5.29973 94.1677 2.55906 104.718 0H161.867" fill="black" fill-opacity="0.4"/></g></g><g transform="translate(52, 124)"><rect x="16" y="8" width="44" height="4" rx="2" fill="black" fill-opacity="0.8"/></g><g transform="translate(38, 76)"><rect y="11" width="104" height="34" rx="17" fill="black" fill-opacity="0.8"/><path fill-rule="evenodd" clip-rule="evenodd" d="M29 41C36.1797 41 42 35.1797 42 28C42 20.8203 36.1797 15 29 15C21.8203 15 16 20.8203 16 28C16 35.1797 21.8203 41 29 41Z" fill="#F1EEDA"/><path fill-rule="evenodd" clip-rule="evenodd" d="M75 41C82.1797 41 88 35.1797 88 28C88 20.8203 82.1797 15 75 15C67.8203 15 62 20.8203 62 28C62 35.1797 67.8203 41 75 41Z" fill="#F1EEDA"/><rect x="24" y="23" width="10" height="10" rx="2" fill="black" fill-opacity="0.8"/><rect x="70" y="23" width="10" height="10" rx="2" fill="black" fill-opacity="0.8"/></g></g></svg>